<mxfile host="app.diagrams.net" modified="2023-01-27T16:24:31.974Z" agent="5.0 (Macintosh; Intel Mac OS X 10_14_6) AppleWebKit/537.36 (KHTML, like Gecko) Chrome/89.0.4389.90 Safari/537.36 Edg/89.0.774.57" etag="6Mhd1U4hrZEZisRdw4r-" version="20.8.13" type="github">
  <diagram name="Sida-1" id="kPzA5vPGDyIlWqKKxrf5">
    <mxGraphModel dx="1386" dy="788" grid="1" gridSize="10" guides="1" tooltips="1" connect="1" arrows="1" fold="1" page="1" pageScale="1" pageWidth="827" pageHeight="1169" math="0" shadow="0">
      <root>
        <mxCell id="0" />
        <mxCell id="1" parent="0" />
        <mxCell id="7shptAwFYSbdW4jlvjq1-21" value="" style="edgeStyle=orthogonalEdgeStyle;rounded=0;orthogonalLoop=1;jettySize=auto;html=1;entryX=0;entryY=0.6;entryDx=0;entryDy=0;entryPerimeter=0;" edge="1" parent="1" source="BnUvvNfdKLv91Dd7iQGs-1" target="7shptAwFYSbdW4jlvjq1-17">
          <mxGeometry relative="1" as="geometry">
            <Array as="points">
              <mxPoint x="845" y="500" />
              <mxPoint x="845" y="940" />
            </Array>
          </mxGeometry>
        </mxCell>
        <mxCell id="7shptAwFYSbdW4jlvjq1-24" value="" style="edgeStyle=orthogonalEdgeStyle;rounded=0;orthogonalLoop=1;jettySize=auto;html=1;entryX=0;entryY=0.458;entryDx=0;entryDy=0;entryPerimeter=0;" edge="1" parent="1" source="BnUvvNfdKLv91Dd7iQGs-1" target="7shptAwFYSbdW4jlvjq1-3">
          <mxGeometry relative="1" as="geometry">
            <mxPoint x="964" y="657" as="targetPoint" />
            <Array as="points">
              <mxPoint x="845" y="440" />
              <mxPoint x="845" y="438" />
            </Array>
          </mxGeometry>
        </mxCell>
        <mxCell id="BnUvvNfdKLv91Dd7iQGs-1" value="" style="strokeWidth=1;shadow=0;dashed=0;align=center;html=1;shape=mxgraph.mockup.containers.browserWindow;rSize=0;strokeColor=#666666;strokeColor2=#008cff;strokeColor3=#c4c4c4;mainText=,;recursiveResize=0;" parent="1" vertex="1">
          <mxGeometry x="110" y="190" width="640" height="450" as="geometry" />
        </mxCell>
        <mxCell id="BnUvvNfdKLv91Dd7iQGs-2" value="Page 1" style="strokeWidth=1;shadow=0;dashed=0;align=center;html=1;shape=mxgraph.mockup.containers.anchor;fontSize=17;fontColor=#666666;align=left;" parent="BnUvvNfdKLv91Dd7iQGs-1" vertex="1">
          <mxGeometry x="60" y="12" width="110" height="26" as="geometry" />
        </mxCell>
        <mxCell id="BnUvvNfdKLv91Dd7iQGs-3" value="https://www.regApp.io/Login" style="strokeWidth=1;shadow=0;dashed=0;align=center;html=1;shape=mxgraph.mockup.containers.anchor;rSize=0;fontSize=17;fontColor=#666666;align=left;" parent="BnUvvNfdKLv91Dd7iQGs-1" vertex="1">
          <mxGeometry x="130" y="60" width="250" height="26" as="geometry" />
        </mxCell>
        <mxCell id="mrO0CaeoB24Xe4PspME4-4" value="" style="strokeWidth=1;shadow=0;dashed=0;align=center;html=1;shape=mxgraph.mockup.forms.rrect;rSize=0;strokeColor=#999999;fillColor=#ffffff;" parent="BnUvvNfdKLv91Dd7iQGs-1" vertex="1">
          <mxGeometry x="170" y="130" width="240" height="300" as="geometry" />
        </mxCell>
        <mxCell id="mrO0CaeoB24Xe4PspME4-5" value="Sign In" style="strokeWidth=1;shadow=0;dashed=0;align=center;html=1;shape=mxgraph.mockup.forms.anchor;fontSize=12;fontColor=#666666;align=left;resizeWidth=1;spacingLeft=0;" parent="mrO0CaeoB24Xe4PspME4-4" vertex="1">
          <mxGeometry width="119.99999999999997" height="20" relative="1" as="geometry">
            <mxPoint x="10" y="10" as="offset" />
          </mxGeometry>
        </mxCell>
        <mxCell id="mrO0CaeoB24Xe4PspME4-6" value="" style="shape=line;strokeColor=#ddeeff;strokeWidth=2;html=1;resizeWidth=1;" parent="mrO0CaeoB24Xe4PspME4-4" vertex="1">
          <mxGeometry width="215.99999999999994" height="10" relative="1" as="geometry">
            <mxPoint x="10" y="30" as="offset" />
          </mxGeometry>
        </mxCell>
        <mxCell id="mrO0CaeoB24Xe4PspME4-7" value="User Name:" style="strokeWidth=1;shadow=0;dashed=0;align=center;html=1;shape=mxgraph.mockup.forms.anchor;fontSize=12;fontColor=#666666;align=left;resizeWidth=1;spacingLeft=0;" parent="mrO0CaeoB24Xe4PspME4-4" vertex="1">
          <mxGeometry width="119.99999999999997" height="20" relative="1" as="geometry">
            <mxPoint x="10" y="40" as="offset" />
          </mxGeometry>
        </mxCell>
        <mxCell id="mrO0CaeoB24Xe4PspME4-8" value="johndoe" style="strokeWidth=1;shadow=0;dashed=0;align=center;html=1;shape=mxgraph.mockup.forms.rrect;rSize=0;strokeColor=#999999;fontColor=#666666;align=left;spacingLeft=5;resizeWidth=1;" parent="mrO0CaeoB24Xe4PspME4-4" vertex="1">
          <mxGeometry width="179.99999999999997" height="25" relative="1" as="geometry">
            <mxPoint x="10" y="60" as="offset" />
          </mxGeometry>
        </mxCell>
        <mxCell id="mrO0CaeoB24Xe4PspME4-9" value="Password:" style="strokeWidth=1;shadow=0;dashed=0;align=center;html=1;shape=mxgraph.mockup.forms.anchor;fontSize=12;fontColor=#666666;align=left;resizeWidth=1;spacingLeft=0;" parent="mrO0CaeoB24Xe4PspME4-4" vertex="1">
          <mxGeometry width="119.99999999999997" height="20" relative="1" as="geometry">
            <mxPoint x="10" y="95" as="offset" />
          </mxGeometry>
        </mxCell>
        <mxCell id="mrO0CaeoB24Xe4PspME4-10" value="********" style="strokeWidth=1;shadow=0;dashed=0;align=center;html=1;shape=mxgraph.mockup.forms.rrect;rSize=0;strokeColor=#999999;fontColor=#666666;align=left;spacingLeft=5;resizeWidth=1;" parent="mrO0CaeoB24Xe4PspME4-4" vertex="1">
          <mxGeometry width="179.99999999999997" height="25" relative="1" as="geometry">
            <mxPoint x="10" y="115" as="offset" />
          </mxGeometry>
        </mxCell>
        <mxCell id="mrO0CaeoB24Xe4PspME4-11" value="SIGN IN" style="strokeWidth=1;shadow=0;dashed=0;align=center;html=1;shape=mxgraph.mockup.forms.rrect;rSize=5;strokeColor=none;fontColor=#ffffff;fillColor=#66bbff;fontSize=16;fontStyle=1;" parent="mrO0CaeoB24Xe4PspME4-4" vertex="1">
          <mxGeometry y="1" width="80" height="30" relative="1" as="geometry">
            <mxPoint x="80" y="-150" as="offset" />
          </mxGeometry>
        </mxCell>
        <mxCell id="mrO0CaeoB24Xe4PspME4-12" value="Forgot Password?" style="strokeWidth=1;shadow=0;dashed=0;align=center;html=1;shape=mxgraph.mockup.forms.anchor;fontSize=12;fontColor=#9999ff;align=left;spacingLeft=0;fontStyle=4;resizeWidth=1;" parent="mrO0CaeoB24Xe4PspME4-4" vertex="1">
          <mxGeometry y="1" width="179.99999999999997" height="20" relative="1" as="geometry">
            <mxPoint x="10" y="-110" as="offset" />
          </mxGeometry>
        </mxCell>
        <mxCell id="mrO0CaeoB24Xe4PspME4-13" value="" style="shape=line;strokeColor=#ddeeff;strokeWidth=2;html=1;resizeWidth=1;" parent="mrO0CaeoB24Xe4PspME4-4" vertex="1">
          <mxGeometry y="1" width="215.99999999999994" height="10" relative="1" as="geometry">
            <mxPoint x="10" y="-90" as="offset" />
          </mxGeometry>
        </mxCell>
        <mxCell id="mrO0CaeoB24Xe4PspME4-14" value="New User" style="strokeWidth=1;shadow=0;dashed=0;align=center;html=1;shape=mxgraph.mockup.forms.anchor;fontSize=12;fontColor=#666666;align=left;spacingLeft=0;resizeWidth=1;" parent="mrO0CaeoB24Xe4PspME4-4" vertex="1">
          <mxGeometry y="1" width="179.99999999999997" height="20" relative="1" as="geometry">
            <mxPoint x="10" y="-70" as="offset" />
          </mxGeometry>
        </mxCell>
        <mxCell id="mrO0CaeoB24Xe4PspME4-15" value="SIGN UP" style="strokeWidth=1;shadow=0;dashed=0;align=center;html=1;shape=mxgraph.mockup.forms.rrect;rSize=5;strokeColor=none;fontColor=#ffffff;fillColor=#66bbff;fontSize=16;fontStyle=1;" parent="mrO0CaeoB24Xe4PspME4-4" vertex="1">
          <mxGeometry y="1" width="80" height="30" relative="1" as="geometry">
            <mxPoint x="80" y="-35" as="offset" />
          </mxGeometry>
        </mxCell>
        <mxCell id="LxsmjPVJHAoXayF_g4ax-1" value="" style="strokeWidth=1;shadow=0;dashed=0;align=center;html=1;shape=mxgraph.mockup.containers.browserWindow;rSize=0;strokeColor=#666666;strokeColor2=#008cff;strokeColor3=#c4c4c4;mainText=,;recursiveResize=0;" parent="1" vertex="1">
          <mxGeometry x="103" y="690" width="629" height="660" as="geometry" />
        </mxCell>
        <mxCell id="LxsmjPVJHAoXayF_g4ax-2" value="Page 2" style="strokeWidth=1;shadow=0;dashed=0;align=center;html=1;shape=mxgraph.mockup.containers.anchor;fontSize=17;fontColor=#666666;align=left;" parent="LxsmjPVJHAoXayF_g4ax-1" vertex="1">
          <mxGeometry x="60" y="12" width="110" height="26" as="geometry" />
        </mxCell>
        <mxCell id="LxsmjPVJHAoXayF_g4ax-3" value="https://www.regApp.io/SignUp" style="strokeWidth=1;shadow=0;dashed=0;align=center;html=1;shape=mxgraph.mockup.containers.anchor;rSize=0;fontSize=17;fontColor=#666666;align=left;" parent="LxsmjPVJHAoXayF_g4ax-1" vertex="1">
          <mxGeometry x="130" y="60" width="250" height="26" as="geometry" />
        </mxCell>
        <mxCell id="LxsmjPVJHAoXayF_g4ax-4" value="" style="strokeWidth=1;shadow=0;dashed=0;align=center;html=1;shape=mxgraph.mockup.forms.rrect;rSize=0;strokeColor=#999999;fillColor=#ffffff;" parent="LxsmjPVJHAoXayF_g4ax-1" vertex="1">
          <mxGeometry x="170" y="130" width="240" height="300" as="geometry" />
        </mxCell>
        <mxCell id="LxsmjPVJHAoXayF_g4ax-5" value="Sign Up" style="strokeWidth=1;shadow=0;dashed=0;align=center;html=1;shape=mxgraph.mockup.forms.anchor;fontSize=12;fontColor=#666666;align=left;resizeWidth=1;spacingLeft=0;" parent="LxsmjPVJHAoXayF_g4ax-4" vertex="1">
          <mxGeometry width="119.99999999999997" height="20" relative="1" as="geometry">
            <mxPoint x="10" y="10" as="offset" />
          </mxGeometry>
        </mxCell>
        <mxCell id="LxsmjPVJHAoXayF_g4ax-6" value="" style="shape=line;strokeColor=#ddeeff;strokeWidth=2;html=1;resizeWidth=1;" parent="LxsmjPVJHAoXayF_g4ax-4" vertex="1">
          <mxGeometry width="215.99999999999994" height="10" relative="1" as="geometry">
            <mxPoint x="10" y="30" as="offset" />
          </mxGeometry>
        </mxCell>
        <mxCell id="LxsmjPVJHAoXayF_g4ax-7" value="User Name:" style="strokeWidth=1;shadow=0;dashed=0;align=center;html=1;shape=mxgraph.mockup.forms.anchor;fontSize=12;fontColor=#666666;align=left;resizeWidth=1;spacingLeft=0;" parent="LxsmjPVJHAoXayF_g4ax-4" vertex="1">
          <mxGeometry width="119.99999999999997" height="20" relative="1" as="geometry">
            <mxPoint x="10" y="40" as="offset" />
          </mxGeometry>
        </mxCell>
        <mxCell id="LxsmjPVJHAoXayF_g4ax-8" value="johndoe" style="strokeWidth=1;shadow=0;dashed=0;align=center;html=1;shape=mxgraph.mockup.forms.rrect;rSize=0;strokeColor=#999999;fontColor=#666666;align=left;spacingLeft=5;resizeWidth=1;" parent="LxsmjPVJHAoXayF_g4ax-4" vertex="1">
          <mxGeometry width="179.99999999999997" height="25" relative="1" as="geometry">
            <mxPoint x="10" y="60" as="offset" />
          </mxGeometry>
        </mxCell>
        <mxCell id="LxsmjPVJHAoXayF_g4ax-9" value="Password:" style="strokeWidth=1;shadow=0;dashed=0;align=center;html=1;shape=mxgraph.mockup.forms.anchor;fontSize=12;fontColor=#666666;align=left;resizeWidth=1;spacingLeft=0;" parent="LxsmjPVJHAoXayF_g4ax-4" vertex="1">
          <mxGeometry width="119.99999999999997" height="20" relative="1" as="geometry">
            <mxPoint x="10" y="95" as="offset" />
          </mxGeometry>
        </mxCell>
        <mxCell id="LxsmjPVJHAoXayF_g4ax-10" value="********" style="strokeWidth=1;shadow=0;dashed=0;align=center;html=1;shape=mxgraph.mockup.forms.rrect;rSize=0;strokeColor=#999999;fontColor=#666666;align=left;spacingLeft=5;resizeWidth=1;" parent="LxsmjPVJHAoXayF_g4ax-4" vertex="1">
          <mxGeometry width="179.99999999999997" height="25" relative="1" as="geometry">
            <mxPoint x="10" y="115" as="offset" />
          </mxGeometry>
        </mxCell>
        <mxCell id="LxsmjPVJHAoXayF_g4ax-11" value="SIGN UP" style="strokeWidth=1;shadow=0;dashed=0;align=center;html=1;shape=mxgraph.mockup.forms.rrect;rSize=5;strokeColor=none;fontColor=#ffffff;fillColor=#66bbff;fontSize=16;fontStyle=1;" parent="LxsmjPVJHAoXayF_g4ax-4" vertex="1">
          <mxGeometry y="1" width="80" height="30" relative="1" as="geometry">
            <mxPoint x="80" y="-70" as="offset" />
          </mxGeometry>
        </mxCell>
        <mxCell id="LxsmjPVJHAoXayF_g4ax-16" value="********" style="strokeWidth=1;shadow=0;dashed=0;align=center;html=1;shape=mxgraph.mockup.forms.rrect;rSize=0;strokeColor=#999999;fontColor=#666666;align=left;spacingLeft=5;resizeWidth=1;" parent="LxsmjPVJHAoXayF_g4ax-4" vertex="1">
          <mxGeometry x="10" y="170" width="179.99999999999997" height="25" as="geometry" />
        </mxCell>
        <mxCell id="LxsmjPVJHAoXayF_g4ax-17" value="Confirm Password:" style="strokeWidth=1;shadow=0;dashed=0;align=center;html=1;shape=mxgraph.mockup.forms.anchor;fontSize=12;fontColor=#666666;align=left;resizeWidth=1;spacingLeft=0;" parent="LxsmjPVJHAoXayF_g4ax-4" vertex="1">
          <mxGeometry x="10" y="150" width="119.99999999999997" height="20" as="geometry" />
        </mxCell>
        <mxCell id="7shptAwFYSbdW4jlvjq1-2" value="Already have an account? Sign in!" style="strokeWidth=1;shadow=0;dashed=0;align=center;html=1;shape=mxgraph.mockup.forms.anchor;fontSize=12;fontColor=#9999ff;align=left;spacingLeft=0;fontStyle=4;resizeWidth=1;" vertex="1" parent="LxsmjPVJHAoXayF_g4ax-4">
          <mxGeometry x="10" y="270" width="179.99999999999997" height="20" as="geometry" />
        </mxCell>
        <mxCell id="7shptAwFYSbdW4jlvjq1-74" value="" style="edgeStyle=orthogonalEdgeStyle;rounded=0;orthogonalLoop=1;jettySize=auto;html=1;" edge="1" parent="1" source="7shptAwFYSbdW4jlvjq1-3">
          <mxGeometry relative="1" as="geometry">
            <mxPoint x="1943" y="470" as="targetPoint" />
          </mxGeometry>
        </mxCell>
        <mxCell id="7shptAwFYSbdW4jlvjq1-3" value="" style="strokeWidth=1;shadow=0;dashed=0;align=center;html=1;shape=mxgraph.mockup.containers.browserWindow;rSize=0;strokeColor=#666666;strokeColor2=#008cff;strokeColor3=#c4c4c4;mainText=,;recursiveResize=0;" vertex="1" parent="1">
          <mxGeometry x="970" y="90" width="622" height="650" as="geometry" />
        </mxCell>
        <mxCell id="7shptAwFYSbdW4jlvjq1-4" value="Page 1" style="strokeWidth=1;shadow=0;dashed=0;align=center;html=1;shape=mxgraph.mockup.containers.anchor;fontSize=17;fontColor=#666666;align=left;" vertex="1" parent="7shptAwFYSbdW4jlvjq1-3">
          <mxGeometry x="60" y="12" width="110" height="26" as="geometry" />
        </mxCell>
        <mxCell id="7shptAwFYSbdW4jlvjq1-5" value="https://www.regApp.io/Applicant" style="strokeWidth=1;shadow=0;dashed=0;align=center;html=1;shape=mxgraph.mockup.containers.anchor;rSize=0;fontSize=17;fontColor=#666666;align=left;" vertex="1" parent="7shptAwFYSbdW4jlvjq1-3">
          <mxGeometry x="130" y="60" width="250" height="26" as="geometry" />
        </mxCell>
        <mxCell id="7shptAwFYSbdW4jlvjq1-25" value="LOG OUT" style="strokeWidth=1;shadow=0;dashed=0;align=center;html=1;shape=mxgraph.mockup.forms.rrect;rSize=5;strokeColor=none;fontColor=#ffffff;fillColor=#66bbff;fontSize=16;fontStyle=1;" vertex="1" parent="7shptAwFYSbdW4jlvjq1-3">
          <mxGeometry x="519.9999999999998" y="130" width="80" height="30" as="geometry" />
        </mxCell>
        <mxCell id="7shptAwFYSbdW4jlvjq1-28" value="Apply for a position" style="text;strokeColor=none;fillColor=none;html=1;fontSize=24;fontStyle=1;verticalAlign=middle;align=center;" vertex="1" parent="7shptAwFYSbdW4jlvjq1-3">
          <mxGeometry x="80" y="120" width="100" height="40" as="geometry" />
        </mxCell>
        <mxCell id="7shptAwFYSbdW4jlvjq1-48" value="Area of expertise" style="strokeWidth=1;shadow=0;dashed=0;align=center;html=1;shape=mxgraph.mockup.forms.comboBox;strokeColor=#999999;fillColor=#ddeeff;align=left;fillColor2=#aaddff;mainText=;fontColor=#666666;fontSize=17;spacingLeft=3;" vertex="1" parent="7shptAwFYSbdW4jlvjq1-3">
          <mxGeometry x="55" y="180" width="185" height="30" as="geometry" />
        </mxCell>
        <mxCell id="7shptAwFYSbdW4jlvjq1-50" value="Years of experience" style="strokeWidth=1;shadow=0;dashed=0;align=center;html=1;shape=mxgraph.mockup.text.textBox;fontColor=#666666;align=left;fontSize=17;spacingLeft=4;spacingTop=-3;strokeColor=#666666;mainText=" vertex="1" parent="7shptAwFYSbdW4jlvjq1-3">
          <mxGeometry x="290" y="180" width="170" height="30" as="geometry" />
        </mxCell>
        <mxCell id="7shptAwFYSbdW4jlvjq1-51" value="Add area of expertise" style="strokeWidth=1;shadow=0;dashed=0;align=center;html=1;shape=mxgraph.mockup.forms.anchor;fontSize=12;fontColor=#9999ff;align=left;spacingLeft=0;fontStyle=4;resizeWidth=1;" vertex="1" parent="7shptAwFYSbdW4jlvjq1-3">
          <mxGeometry x="490" y="185" width="120" height="20" as="geometry" />
        </mxCell>
        <mxCell id="7shptAwFYSbdW4jlvjq1-52" value="" style="html=1;shadow=0;dashed=0;shape=mxgraph.bootstrap.rrect;rSize=5;strokeColor=#DFDFDF;html=1;whiteSpace=wrap;fillColor=#FFFFFF;fontColor=#000000;" vertex="1" parent="7shptAwFYSbdW4jlvjq1-3">
          <mxGeometry x="190" y="240" width="200" height="150" as="geometry" />
        </mxCell>
        <mxCell id="7shptAwFYSbdW4jlvjq1-53" value="Expertise 1&amp;nbsp;&lt;span style=&quot;white-space: pre;&quot;&gt;	&lt;/span&gt;&lt;span style=&quot;white-space: pre;&quot;&gt;	&lt;/span&gt;2020" style="strokeColor=inherit;fillColor=inherit;gradientColor=inherit;fontColor=inherit;html=1;shadow=0;dashed=0;shape=mxgraph.bootstrap.topButton;rSize=5;perimeter=none;whiteSpace=wrap;resizeWidth=1;align=left;spacing=10;" vertex="1" parent="7shptAwFYSbdW4jlvjq1-52">
          <mxGeometry width="200" height="30" relative="1" as="geometry" />
        </mxCell>
        <mxCell id="7shptAwFYSbdW4jlvjq1-54" value="Expertise 2&amp;nbsp;&lt;span style=&quot;white-space: pre;&quot;&gt;	&lt;/span&gt;&lt;span style=&quot;white-space: pre;&quot;&gt;	&lt;/span&gt;2018" style="strokeColor=inherit;fillColor=inherit;gradientColor=inherit;fontColor=inherit;html=1;shadow=0;dashed=0;perimeter=none;whiteSpace=wrap;resizeWidth=1;align=left;spacing=10;" vertex="1" parent="7shptAwFYSbdW4jlvjq1-52">
          <mxGeometry width="200" height="30" relative="1" as="geometry">
            <mxPoint y="30" as="offset" />
          </mxGeometry>
        </mxCell>
        <mxCell id="7shptAwFYSbdW4jlvjq1-55" value="Expertise 3&amp;nbsp;&lt;span style=&quot;white-space: pre;&quot;&gt;	&lt;/span&gt;&lt;span style=&quot;white-space: pre;&quot;&gt;	&lt;/span&gt;2020" style="strokeColor=inherit;fillColor=inherit;gradientColor=inherit;fontColor=inherit;html=1;shadow=0;dashed=0;perimeter=none;whiteSpace=wrap;resizeWidth=1;align=left;spacing=10;" vertex="1" parent="7shptAwFYSbdW4jlvjq1-52">
          <mxGeometry width="200" height="30" relative="1" as="geometry">
            <mxPoint y="60" as="offset" />
          </mxGeometry>
        </mxCell>
        <mxCell id="7shptAwFYSbdW4jlvjq1-56" value="Expertise 4&lt;span style=&quot;white-space: pre;&quot;&gt;	&lt;/span&gt;&lt;span style=&quot;white-space: pre;&quot;&gt;	&lt;/span&gt;2020" style="strokeColor=inherit;fillColor=inherit;gradientColor=inherit;fontColor=inherit;html=1;shadow=0;dashed=0;perimeter=none;whiteSpace=wrap;resizeWidth=1;align=left;spacing=10;" vertex="1" parent="7shptAwFYSbdW4jlvjq1-52">
          <mxGeometry width="200" height="30" relative="1" as="geometry">
            <mxPoint y="90" as="offset" />
          </mxGeometry>
        </mxCell>
        <mxCell id="7shptAwFYSbdW4jlvjq1-65" value="" style="strokeWidth=1;shadow=0;dashed=0;align=center;html=1;shape=mxgraph.mockup.forms.rrect;rSize=0;strokeColor=#999999;fillColor=#ffffff;recursiveResize=0;" vertex="1" parent="7shptAwFYSbdW4jlvjq1-3">
          <mxGeometry x="220" y="410" width="150" height="120" as="geometry" />
        </mxCell>
        <mxCell id="7shptAwFYSbdW4jlvjq1-66" value="Jan - Mars" style="strokeWidth=1;shadow=0;dashed=0;align=center;html=1;shape=mxgraph.mockup.forms.rrect;rSize=0;fillColor=#eeeeee;strokeColor=#999999;gradientColor=#cccccc;align=left;spacingLeft=4;fontSize=17;fontColor=#666666;labelPosition=right;" vertex="1" parent="7shptAwFYSbdW4jlvjq1-65">
          <mxGeometry x="8" y="7.5" width="15" height="15" as="geometry" />
        </mxCell>
        <mxCell id="7shptAwFYSbdW4jlvjq1-67" value="April - Juni" style="strokeWidth=1;shadow=0;dashed=0;align=center;html=1;shape=mxgraph.mockup.forms.rrect;rSize=0;fillColor=#eeeeee;strokeColor=#999999;gradientColor=#cccccc;align=left;spacingLeft=4;fontSize=17;fontColor=#666666;labelPosition=right;" vertex="1" parent="7shptAwFYSbdW4jlvjq1-65">
          <mxGeometry x="8" y="37.5" width="15" height="15" as="geometry" />
        </mxCell>
        <mxCell id="7shptAwFYSbdW4jlvjq1-68" value="Juli - Sep" style="strokeWidth=1;shadow=0;dashed=0;align=center;html=1;shape=mxgraph.mockup.forms.checkbox;rSize=0;resizable=0;fillColor=#aaaaaa;strokeColor=#444444;gradientColor=#666666;align=left;spacingLeft=4;fontSize=17;fontColor=#008cff;labelPosition=right;" vertex="1" parent="7shptAwFYSbdW4jlvjq1-65">
          <mxGeometry x="8" y="67.5" width="15" height="15" as="geometry" />
        </mxCell>
        <mxCell id="7shptAwFYSbdW4jlvjq1-69" value="Okt - Dec" style="strokeWidth=1;shadow=0;dashed=0;align=center;html=1;shape=mxgraph.mockup.forms.rrect;rSize=0;fillColor=#eeeeee;strokeColor=#999999;gradientColor=#cccccc;align=left;spacingLeft=4;fontSize=17;fontColor=#666666;labelPosition=right;" vertex="1" parent="7shptAwFYSbdW4jlvjq1-65">
          <mxGeometry x="8" y="97.5" width="15" height="15" as="geometry" />
        </mxCell>
        <mxCell id="7shptAwFYSbdW4jlvjq1-72" value="Summary" style="strokeWidth=1;shadow=0;dashed=0;align=center;html=1;shape=mxgraph.mockup.buttons.button;strokeColor=#666666;fontColor=#ffffff;mainText=;buttonStyle=round;fontSize=17;fontStyle=1;fillColor=#008cff;whiteSpace=wrap;" vertex="1" parent="7shptAwFYSbdW4jlvjq1-3">
          <mxGeometry x="390" y="560" width="130" height="50" as="geometry" />
        </mxCell>
        <mxCell id="7shptAwFYSbdW4jlvjq1-94" value="" style="html=1;shadow=0;dashed=0;align=center;verticalAlign=middle;shape=mxgraph.arrows2.arrow;dy=0.6;dx=40;notch=0;" vertex="1" parent="7shptAwFYSbdW4jlvjq1-3">
          <mxGeometry x="450" y="350" width="100" height="70" as="geometry" />
        </mxCell>
        <mxCell id="7shptAwFYSbdW4jlvjq1-95" value="" style="html=1;shadow=0;dashed=0;align=center;verticalAlign=middle;shape=mxgraph.arrows2.arrow;dy=0.6;dx=40;flipH=1;notch=0;" vertex="1" parent="7shptAwFYSbdW4jlvjq1-3">
          <mxGeometry x="50" y="350" width="100" height="70" as="geometry" />
        </mxCell>
        <mxCell id="7shptAwFYSbdW4jlvjq1-17" value="" style="strokeWidth=1;shadow=0;dashed=0;align=center;html=1;shape=mxgraph.mockup.containers.browserWindow;rSize=0;strokeColor=#666666;strokeColor2=#008cff;strokeColor3=#c4c4c4;mainText=,;recursiveResize=0;" vertex="1" parent="1">
          <mxGeometry x="950" y="1030" width="622" height="450" as="geometry" />
        </mxCell>
        <mxCell id="7shptAwFYSbdW4jlvjq1-18" value="Page 1" style="strokeWidth=1;shadow=0;dashed=0;align=center;html=1;shape=mxgraph.mockup.containers.anchor;fontSize=17;fontColor=#666666;align=left;" vertex="1" parent="7shptAwFYSbdW4jlvjq1-17">
          <mxGeometry x="60" y="12" width="110" height="26" as="geometry" />
        </mxCell>
        <mxCell id="7shptAwFYSbdW4jlvjq1-19" value="https://www.regApp.io/Admin" style="strokeWidth=1;shadow=0;dashed=0;align=center;html=1;shape=mxgraph.mockup.containers.anchor;rSize=0;fontSize=17;fontColor=#666666;align=left;" vertex="1" parent="7shptAwFYSbdW4jlvjq1-17">
          <mxGeometry x="130" y="60" width="250" height="26" as="geometry" />
        </mxCell>
        <mxCell id="7shptAwFYSbdW4jlvjq1-23" value="" style="shape=waypoint;sketch=0;size=6;pointerEvents=1;points=[];fillColor=default;resizable=0;rotatable=0;perimeter=centerPerimeter;snapToPoint=1;strokeColor=#666666;strokeWidth=1;shadow=0;dashed=0;" vertex="1" parent="1">
          <mxGeometry x="1140" y="405" width="20" height="20" as="geometry" />
        </mxCell>
        <mxCell id="7shptAwFYSbdW4jlvjq1-75" value="" style="strokeWidth=1;shadow=0;dashed=0;align=center;html=1;shape=mxgraph.mockup.containers.browserWindow;rSize=0;strokeColor=#666666;strokeColor2=#008cff;strokeColor3=#c4c4c4;mainText=,;recursiveResize=0;" vertex="1" parent="1">
          <mxGeometry x="1940" y="50" width="622" height="710" as="geometry" />
        </mxCell>
        <mxCell id="7shptAwFYSbdW4jlvjq1-76" value="Page 1" style="strokeWidth=1;shadow=0;dashed=0;align=center;html=1;shape=mxgraph.mockup.containers.anchor;fontSize=17;fontColor=#666666;align=left;" vertex="1" parent="7shptAwFYSbdW4jlvjq1-75">
          <mxGeometry x="60" y="12" width="110" height="26" as="geometry" />
        </mxCell>
        <mxCell id="7shptAwFYSbdW4jlvjq1-77" value="https://www.regApp.io/Applicant" style="strokeWidth=1;shadow=0;dashed=0;align=center;html=1;shape=mxgraph.mockup.containers.anchor;rSize=0;fontSize=17;fontColor=#666666;align=left;" vertex="1" parent="7shptAwFYSbdW4jlvjq1-75">
          <mxGeometry x="130" y="60" width="250" height="26" as="geometry" />
        </mxCell>
        <mxCell id="7shptAwFYSbdW4jlvjq1-96" value="Apply for a position" style="text;strokeColor=none;fillColor=none;html=1;fontSize=24;fontStyle=1;verticalAlign=middle;align=center;" vertex="1" parent="7shptAwFYSbdW4jlvjq1-75">
          <mxGeometry x="110" y="130" width="100" height="40" as="geometry" />
        </mxCell>
        <mxCell id="7shptAwFYSbdW4jlvjq1-97" value="" style="rounded=1;whiteSpace=wrap;html=1;" vertex="1" parent="7shptAwFYSbdW4jlvjq1-75">
          <mxGeometry x="141" y="220" width="340" height="320" as="geometry" />
        </mxCell>
        <mxCell id="7shptAwFYSbdW4jlvjq1-99" value="&lt;h1&gt;Summary&lt;/h1&gt;&lt;p&gt;Lorem ipsum dolor sit amet, consectetur adipisicing elit, sed do eiusmod tempor incididunt ut labore et dolore magna aliqua.&lt;/p&gt;" style="text;html=1;strokeColor=none;fillColor=none;spacing=5;spacingTop=-20;whiteSpace=wrap;overflow=hidden;rounded=0;" vertex="1" parent="7shptAwFYSbdW4jlvjq1-75">
          <mxGeometry x="180" y="280" width="190" height="120" as="geometry" />
        </mxCell>
        <mxCell id="7shptAwFYSbdW4jlvjq1-101" value="Cancel" style="strokeWidth=1;shadow=0;dashed=0;align=center;html=1;shape=mxgraph.mockup.buttons.button;strokeColor=#666666;fontColor=#ffffff;mainText=;buttonStyle=round;fontSize=17;fontStyle=1;fillColor=#008cff;whiteSpace=wrap;" vertex="1" parent="7shptAwFYSbdW4jlvjq1-75">
          <mxGeometry x="160" y="560" width="150" height="50" as="geometry" />
        </mxCell>
        <mxCell id="7shptAwFYSbdW4jlvjq1-100" value="Edit" style="strokeWidth=1;shadow=0;dashed=0;align=center;html=1;shape=mxgraph.mockup.buttons.button;strokeColor=#666666;fontColor=#ffffff;mainText=;buttonStyle=round;fontSize=17;fontStyle=1;fillColor=#008cff;whiteSpace=wrap;" vertex="1" parent="7shptAwFYSbdW4jlvjq1-75">
          <mxGeometry x="340" y="490" width="110" height="40" as="geometry" />
        </mxCell>
        <mxCell id="7shptAwFYSbdW4jlvjq1-102" value="Apply" style="strokeWidth=1;shadow=0;dashed=0;align=center;html=1;shape=mxgraph.mockup.buttons.button;strokeColor=#666666;fontColor=#ffffff;mainText=;buttonStyle=round;fontSize=17;fontStyle=1;fillColor=#008cff;whiteSpace=wrap;" vertex="1" parent="7shptAwFYSbdW4jlvjq1-75">
          <mxGeometry x="331" y="560" width="150" height="50" as="geometry" />
        </mxCell>
        <mxCell id="7shptAwFYSbdW4jlvjq1-103" value="Confirmation message" style="text;html=1;strokeColor=none;fillColor=none;align=center;verticalAlign=middle;whiteSpace=wrap;rounded=0;" vertex="1" parent="7shptAwFYSbdW4jlvjq1-75">
          <mxGeometry x="376" y="630" width="84" height="30" as="geometry" />
        </mxCell>
      </root>
    </mxGraphModel>
  </diagram>
</mxfile>
